<mxfile host="app.diagrams.net" modified="2024-04-01T16:05:27.565Z" agent="Mozilla/5.0 (Macintosh; Intel Mac OS X 10_15_7) AppleWebKit/537.36 (KHTML, like Gecko) Chrome/123.0.0.0 Safari/537.36" etag="DDbC-jyEgszJVbiK2ZBM" version="24.2.0" type="github">
  <diagram id="prtHgNgQTEPvFCAcTncT" name="Page-1">
    <mxGraphModel dx="977" dy="619" grid="1" gridSize="10" guides="1" tooltips="1" connect="1" arrows="1" fold="1" page="1" pageScale="1" pageWidth="827" pageHeight="1169" math="0" shadow="0">
      <root>
        <mxCell id="0" />
        <mxCell id="1" parent="0" />
        <mxCell id="dNxyNK7c78bLwvsdeMH5-11" value="state machine" style="swimlane;html=1;startSize=20;horizontal=1;containerType=tree;glass=0;" parent="1" vertex="1">
          <mxGeometry x="60" y="20" width="760" height="670" as="geometry">
            <mxRectangle x="40" y="20" width="120" height="30" as="alternateBounds" />
          </mxGeometry>
        </mxCell>
        <mxCell id="rjq6H45pOAYHBn0WLlST-1" value="&lt;font style=&quot;font-size: 14px;&quot;&gt;state machine&lt;/font&gt;" style="rounded=1;whiteSpace=wrap;html=1;" parent="dNxyNK7c78bLwvsdeMH5-11" vertex="1">
          <mxGeometry x="320" y="60" width="120" height="60" as="geometry" />
        </mxCell>
        <mxCell id="rjq6H45pOAYHBn0WLlST-2" value="State" style="rounded=1;whiteSpace=wrap;html=1;" parent="dNxyNK7c78bLwvsdeMH5-11" vertex="1">
          <mxGeometry x="319" y="200" width="120" height="60" as="geometry" />
        </mxCell>
        <mxCell id="rjq6H45pOAYHBn0WLlST-3" value="Context" style="rounded=1;whiteSpace=wrap;html=1;" parent="dNxyNK7c78bLwvsdeMH5-11" vertex="1">
          <mxGeometry x="39" y="200" width="161" height="60" as="geometry" />
        </mxCell>
        <mxCell id="rjq6H45pOAYHBn0WLlST-4" value="Trigger" style="rounded=1;whiteSpace=wrap;html=1;" parent="dNxyNK7c78bLwvsdeMH5-11" vertex="1">
          <mxGeometry x="570" y="200" width="140" height="60" as="geometry" />
        </mxCell>
        <mxCell id="rjq6H45pOAYHBn0WLlST-5" value="Context Configer" style="rounded=1;whiteSpace=wrap;html=1;" parent="dNxyNK7c78bLwvsdeMH5-11" vertex="1">
          <mxGeometry x="59.5" y="300" width="120" height="60" as="geometry" />
        </mxCell>
        <mxCell id="rjq6H45pOAYHBn0WLlST-6" value="Context Registry" style="rounded=1;whiteSpace=wrap;html=1;" parent="dNxyNK7c78bLwvsdeMH5-11" vertex="1">
          <mxGeometry x="59.5" y="400" width="120" height="60" as="geometry" />
        </mxCell>
        <mxCell id="rjq6H45pOAYHBn0WLlST-7" value="State Configer" style="rounded=1;whiteSpace=wrap;html=1;" parent="dNxyNK7c78bLwvsdeMH5-11" vertex="1">
          <mxGeometry x="320" y="300" width="120" height="60" as="geometry" />
        </mxCell>
        <mxCell id="rjq6H45pOAYHBn0WLlST-8" value="State Registry" style="rounded=1;whiteSpace=wrap;html=1;" parent="dNxyNK7c78bLwvsdeMH5-11" vertex="1">
          <mxGeometry x="320" y="400" width="120" height="60" as="geometry" />
        </mxCell>
        <mxCell id="rjq6H45pOAYHBn0WLlST-15" value="Dynamic" style="rounded=1;whiteSpace=wrap;html=1;" parent="dNxyNK7c78bLwvsdeMH5-11" vertex="1">
          <mxGeometry x="570" y="300" width="139" height="30" as="geometry" />
        </mxCell>
        <mxCell id="rjq6H45pOAYHBn0WLlST-16" value="Exiting" style="rounded=1;whiteSpace=wrap;html=1;" parent="dNxyNK7c78bLwvsdeMH5-11" vertex="1">
          <mxGeometry x="570" y="330" width="139" height="30" as="geometry" />
        </mxCell>
        <mxCell id="rjq6H45pOAYHBn0WLlST-17" value="FailedCondition" style="rounded=1;whiteSpace=wrap;html=1;" parent="dNxyNK7c78bLwvsdeMH5-11" vertex="1">
          <mxGeometry x="570" y="360" width="139" height="30" as="geometry" />
        </mxCell>
        <mxCell id="rjq6H45pOAYHBn0WLlST-19" value="Reentry" style="rounded=1;whiteSpace=wrap;html=1;" parent="dNxyNK7c78bLwvsdeMH5-11" vertex="1">
          <mxGeometry x="570" y="420" width="139" height="30" as="geometry" />
        </mxCell>
        <mxCell id="rjq6H45pOAYHBn0WLlST-20" value="Resurfacing" style="rounded=1;whiteSpace=wrap;html=1;" parent="dNxyNK7c78bLwvsdeMH5-11" vertex="1">
          <mxGeometry x="570" y="450" width="139" height="30" as="geometry" />
        </mxCell>
        <mxCell id="rjq6H45pOAYHBn0WLlST-21" value="Transition" style="rounded=1;whiteSpace=wrap;html=1;" parent="dNxyNK7c78bLwvsdeMH5-11" vertex="1">
          <mxGeometry x="570" y="480" width="139" height="30" as="geometry" />
        </mxCell>
        <mxCell id="-hfu7ZqzqYeGnkuoLgHh-3" value="state machine" style="ellipse;shape=cloud;whiteSpace=wrap;html=1;" vertex="1" parent="1">
          <mxGeometry x="1130" y="100" width="120" height="80" as="geometry" />
        </mxCell>
        <mxCell id="-hfu7ZqzqYeGnkuoLgHh-4" value="State" style="ellipse;shape=cloud;whiteSpace=wrap;html=1;" vertex="1" parent="1">
          <mxGeometry x="970" y="280" width="120" height="80" as="geometry" />
        </mxCell>
        <mxCell id="-hfu7ZqzqYeGnkuoLgHh-5" value="Trigger" style="ellipse;shape=cloud;whiteSpace=wrap;html=1;" vertex="1" parent="1">
          <mxGeometry x="1310" y="280" width="120" height="80" as="geometry" />
        </mxCell>
      </root>
    </mxGraphModel>
  </diagram>
</mxfile>
